<svg width="1400" height="900" viewBox="0 0 1400 900" fill="none" xmlns="http://www.w3.org/2000/svg">
  <defs>
    <linearGradient id="bg" x1="0" y1="0" x2="1400" y2="900" gradientUnits="userSpaceOnUse">
      <stop stop-color="#E7F0FF"/>
      <stop offset="1" stop-color="#FDFEFF"/>
    </linearGradient>
    <linearGradient id="shirt" x1="0" y1="0" x2="1" y2="1">
      <stop stop-color="#2B70FF"/>
      <stop offset="1" stop-color="#1755D4"/>
    </linearGradient>
  </defs>
  <rect width="1400" height="900" fill="url(#bg)"/>
  <rect x="90" y="80" width="1220" height="740" rx="36" fill="white"/>
  <circle cx="240" cy="220" r="86" fill="#D9E7FF"/>
  <circle cx="1240" cy="710" r="72" fill="#EAF2FF"/>

  <rect x="170" y="180" width="620" height="460" rx="30" fill="#F3F7FF"/>
  <path d="M390 280L470 240L550 280V350L510 380V560H430V380L390 350V280Z" fill="url(#shirt)"/>
  <rect x="455" y="280" width="40" height="80" rx="16" fill="#FFFFFF" fill-opacity="0.25"/>

  <rect x="840" y="190" width="400" height="66" rx="20" fill="#DCE8FF"/>
  <rect x="840" y="286" width="320" height="40" rx="14" fill="#E8F0FF"/>
  <rect x="840" y="346" width="370" height="40" rx="14" fill="#E8F0FF"/>
  <rect x="840" y="406" width="280" height="40" rx="14" fill="#E8F0FF"/>

  <rect x="840" y="510" width="330" height="110" rx="18" fill="#1E64FF"/>
  <text x="885" y="575" fill="white" font-family="Inter, Arial" font-size="40" font-weight="700">Book Now</text>

  <text x="840" y="170" fill="#18305B" font-family="Inter, Arial" font-size="34" font-weight="700">VZE Dry Cleaning</text>
  <text x="170" y="705" fill="#35548E" font-family="Inter, Arial" font-size="26" font-weight="600">Generated custom artwork for website</text>
</svg>
